<svg xmlns="http://www.w3.org/2000/svg" x="0px" y="0px"
    width="20" height="20"
    viewBox="0 0 192 192"
    style=" fill:#000000;">
    <g fill="none" fill-rule="nonzero" stroke="none" stroke-width="1" stroke-linecap="butt" stroke-linejoin="miter" stroke-miterlimit="10" stroke-dasharray="" stroke-dashoffset="0" font-family="none" font-weight="none" font-size="none" text-anchor="none" style="mix-blend-mode: normal">
    <path d="M0,192v-192h192v192z" fill="none"></path>
    <g fill="#ffffff"><g id="surface1"><path d="M62.52,0.12c-0.495,0.09 -1.005,0.18 -1.44,0.48c-1.755,1.185 -2.145,3.645 -0.96,5.4l8.28,12.36c-12.795,6.78 -22.335,18.045 -25.44,31.56h106.08c-3.105,-13.515 -12.645,-24.78 -25.44,-31.56l8.28,-12.36c1.185,-1.755 0.795,-4.215 -0.96,-5.4c-1.77,-1.185 -4.215,-0.675 -5.4,1.08l-9.12,13.44c-6.33,-2.31 -13.2,-3.6 -20.4,-3.6c-7.2,0 -14.07,1.29 -20.4,3.6l-9.12,-13.44c-0.885,-1.32 -2.49,-1.845 -3.96,-1.56zM74.88,30.72c3.18,0 5.76,2.58 5.76,5.76c0,3.195 -2.58,5.76 -5.76,5.76c-3.195,0 -5.76,-2.565 -5.76,-5.76c0,-3.18 2.565,-5.76 5.76,-5.76zM117.12,30.72c3.195,0 5.76,2.58 5.76,5.76c0,3.195 -2.565,5.76 -5.76,5.76c-3.18,0 -5.76,-2.565 -5.76,-5.76c0,-3.18 2.58,-5.76 5.76,-5.76zM30.72,57.6c-6.36,0 -11.52,5.16 -11.52,11.52v53.76c0,6.36 5.16,11.52 11.52,11.52c1.35,0 2.64,-0.285 3.84,-0.72v-75.36c-1.2,-0.435 -2.49,-0.72 -3.84,-0.72zM42.24,57.6v84.48c0,6.345 5.175,11.52 11.52,11.52h84.48c6.345,0 11.52,-5.175 11.52,-11.52v-84.48zM161.28,57.6c-1.35,0 -2.64,0.285 -3.84,0.72v75.36c1.2,0.42 2.49,0.72 3.84,0.72c6.36,0 11.52,-5.16 11.52,-11.52v-53.76c0,-6.36 -5.16,-11.52 -11.52,-11.52zM57.6,161.28v15.36c0,8.475 6.885,15.36 15.36,15.36c8.475,0 15.36,-6.885 15.36,-15.36v-15.36zM103.68,161.28v15.36c0,8.475 6.885,15.36 15.36,15.36c8.475,0 15.36,-6.885 15.36,-15.36v-15.36z"></path>
    </g></g></g>
</svg>