<svg class="Path_1" viewBox="0.097 0.038 27.819 25.264">
    <path fill="rgba(169,171,174,1)" id="Path_1" d="M 16.67461204528809 2.39613676071167 C 20.43372535705566 5.545568943023682 21.31946182250977 10.8482837677002 19.04285049438477 14.98797512054443 L 27.2165641784668 21.83662605285645 C 28.04356956481934 22.53088569641113 28.15398979187012 23.77491569519043 27.45973014831543 24.6019229888916 L 27.45973014831543 24.6019229888916 C 26.76664733886719 25.43009948730469 25.52143859863281 25.53934860229492 24.69442939758301 24.84626388549805 L 16.52072334289551 17.99761581420898 C 12.84384059906006 20.96261405944824 7.467136383056641 21.01900291442871 3.708019256591797 17.86957168579102 C -0.5644671320915222 14.28901672363281 -1.125978350639343 7.923177242279053 2.454589128494263 3.649552583694458 C 6.035144329071045 -0.6240724325180054 12.40098190307617 -1.185624361038208 16.67460632324219 2.396122455596924 Z M 14.44851303100586 5.052186489105225 C 17.25374984741211 7.403983116149902 17.62261009216309 11.58364868164062 15.27199554443359 14.3900671005249 C 12.92137241363525 17.19530487060547 8.740532875061035 17.56416702270508 5.935294628143311 15.21237087249756 C 3.128880977630615 12.86175060272217 2.760019779205322 8.680910110473633 5.111812114715576 5.875673294067383 C 7.462433815002441 3.070434093475342 11.64327430725098 2.701572895050049 14.44851303100586 5.052190780639648 Z">
    </path>       
</svg>